<?xml version="1.0" encoding="utf-8"?>
<!-- Generator: Adobe Illustrator 18.1.0, SVG Export Plug-In . SVG Version: 6.00 Build 0)  -->
<!DOCTYPE svg PUBLIC "-//W3C//DTD SVG 1.1//EN" "http://www.w3.org/Graphics/SVG/1.1/DTD/svg11.dtd">
<svg version="1.1" id="Layer_1" xmlns="http://www.w3.org/2000/svg" xmlns:xlink="http://www.w3.org/1999/xlink" x="0px" y="0px"
	 viewBox="0 0 19.4 19.4" style="enable-background:new 0 0 19.4 19.4;" xml:space="preserve">
<style type="text/css">
	.st0{fill:#FFFFFF;}
</style>
<path class="st0" d="M9.7,0C4.3,0,0,4.3,0,9.7c0,5.4,4.3,9.7,9.7,9.7c5.4,0,9.7-4.3,9.7-9.7C19.4,4.3,15.1,0,9.7,0z M11,9.8
	C11,9.8,11,9.8,11,9.8C11,9.8,11,9.8,11,9.8C11.1,9.8,11.1,9.8,11,9.8l1.9,1.9c0.3,0.3,0.3,0.9,0,1.3c-0.2,0.2-0.4,0.3-0.6,0.3l0,0
	c-0.2,0-0.4-0.1-0.6-0.2c0,0,0,0,0,0L9.8,11c0,0,0,0,0,0c0,0-0.1,0-0.1,0c0,0,0,0,0,0c0,0,0,0,0,0l-1.9,1.9
	c-0.2,0.2-0.4,0.3-0.6,0.3c-0.2,0-0.5-0.1-0.6-0.3c-0.3-0.3-0.3-0.9,0-1.2c0,0,0,0,0,0l0.1-0.1l1.9-1.9c0,0,0,0,0,0l0,0
	c0,0,0-0.1,0-0.1c0,0,0,0,0,0c0,0,0,0,0,0c0,0,0,0,0,0L6.4,7.7c0,0,0,0,0,0c-0.3-0.4-0.3-0.9,0-1.2c0.2-0.2,0.4-0.3,0.6-0.3
	c0.2,0,0.4,0.1,0.6,0.2c0,0,0,0,0,0l1.9,1.9c0,0,0,0,0,0c0,0,0,0,0,0c0,0,0,0,0,0c0,0,0.1,0,0.1,0l0,0c0,0,0,0,0,0c0,0,0,0,0,0
	l1.9-1.9c0,0,0,0,0,0c0.2-0.1,0.4-0.2,0.6-0.2c0.2,0,0.5,0.1,0.6,0.3c0.3,0.3,0.3,0.9,0.1,1.2c0,0,0,0,0,0l-0.1,0.1l-1.8,1.8
	c0,0,0,0,0,0C11,9.7,11,9.7,11,9.8z"/>
</svg>
