<?xml version="1.0" encoding="utf-8"?>
<!-- Generator: Adobe Illustrator 18.1.0, SVG Export Plug-In . SVG Version: 6.00 Build 0)  -->
<!DOCTYPE svg PUBLIC "-//W3C//DTD SVG 1.1//EN" "http://www.w3.org/Graphics/SVG/1.1/DTD/svg11.dtd">
<svg version="1.1" id="Layer_1" xmlns="http://www.w3.org/2000/svg" xmlns:xlink="http://www.w3.org/1999/xlink" x="0px" y="0px"
	 viewBox="0 0 20.6 16.5" style="enable-background:new 0 0 20.6 16.5;" xml:space="preserve">
<style type="text/css">
	.st0{fill:#FFFFFF;}
</style>
<path class="st0" d="M19.2,0L19.2,0h-2c0,0,0,0,0,0l-6,0H11c-0.4,0-0.7,0.4-0.7,0.8v2.6c0,0.4,0.3,0.7,0.7,0.8h0.2h4.6
	c0.4,0,0.6,0.3,0.6,0.6h0v4h0c0,0.3-0.3,0.6-0.6,0.6c0,0,0,0,0,0c0,0,0,0,0,0c0,0,0,0,0,0c0,0,0,0,0,0H7.2H7C6.6,9.3,6.3,9,6.3,8.7
	V8.6V7h0c0-0.3-0.2-0.5-0.5-0.5c-0.1,0-0.2,0-0.3,0.1L5.4,6.6l-5.1,4.2C0.1,11,0,11.2,0,11.5c0,0.2,0.1,0.5,0.3,0.6l5.1,4.2l0.1,0.1
	c0.1,0.1,0.2,0.1,0.3,0.1c0.3,0,0.5-0.2,0.5-0.5h0v-1.6v-0.1c0-0.4,0.4-0.7,0.8-0.7c0,0,0,0,0,0c0,0,0,0,0,0h9.4h2.7h0.1
	c0.8,0,1.4-0.6,1.4-1.4v0V9.4l0-8l0,0v0C20.6,0.7,20,0,19.2,0z"/>
</svg>
