<?xml version="1.0" encoding="utf-8"?>
<!-- Generator: Adobe Illustrator 18.1.0, SVG Export Plug-In . SVG Version: 6.00 Build 0)  -->
<!DOCTYPE svg PUBLIC "-//W3C//DTD SVG 1.1//EN" "http://www.w3.org/Graphics/SVG/1.1/DTD/svg11.dtd">
<svg version="1.1" id="Layer_1" xmlns="http://www.w3.org/2000/svg" xmlns:xlink="http://www.w3.org/1999/xlink" x="0px" y="0px"
	 viewBox="0 0 20 20" style="enable-background:new 0 0 20 20;" xml:space="preserve">
<style type="text/css">
	.st0{fill:#FFFFFF;}
</style>
<g>
	<path class="st0" d="M10,0.3c-5.4,0-9.7,4.3-9.7,9.7c0,5.4,4.3,9.7,9.7,9.7c5.4,0,9.7-4.3,9.7-9.7C19.7,4.6,15.4,0.3,10,0.3z
		 M10,17.7c-4.2,0-7.7-3.4-7.7-7.7c0-4.2,3.4-7.7,7.7-7.7c4.2,0,7.7,3.4,7.7,7.7C17.7,14.2,14.2,17.7,10,17.7z"/>
</g>
<g>
	<path class="st0" d="M9.9,5.1h0.2c0.5,0,1,0.4,1,1v1.5c0,0,0,0.1,0,0.1l-0.5,4.6h-1L8.9,7.7c0,0,0-0.1,0-0.1V6.1
		C8.9,5.5,9.4,5.1,9.9,5.1z M10,13.1L10,13.1c0.6,0,1.1,0.4,1.1,1v0c0,0.5-0.4,1-1,1H10c-0.5,0-1-0.4-1-1v0C9,13.6,9.4,13.1,10,13.1
		z"/>
</g>
</svg>
